<svg width="16" height="16" viewBox="0 0 16 16" fill="none" xmlns="http://www.w3.org/2000/svg">
<path d="M1.33594 6.33309V2.66642C1.33594 2.29823 1.63442 1.99976 2.0026 1.99976H14.0026C14.3708 1.99976 14.6693 2.29823 14.6693 2.66642V6.33309C13.7488 6.33309 13.0026 7.0793 13.0026 7.99976C13.0026 8.92023 13.7488 9.66643 14.6693 9.66643V13.3331C14.6693 13.7013 14.3708 13.9998 14.0026 13.9998H2.0026C1.63442 13.9998 1.33594 13.7013 1.33594 13.3331V9.66643C2.25641 9.66643 3.0026 8.92023 3.0026 7.99976C3.0026 7.0793 2.25641 6.33309 1.33594 6.33309ZM2.66927 5.3116C3.65708 5.8025 4.33594 6.82183 4.33594 7.99976C4.33594 9.17763 3.65708 10.197 2.66927 10.6879V12.6664H13.336V10.6879C12.3482 10.197 11.6693 9.17763 11.6693 7.99976C11.6693 6.82183 12.3482 5.8025 13.336 5.3116V3.33309H2.66927V5.3116ZM6.0026 5.99976H10.0026V7.3331H6.0026V5.99976ZM6.0026 8.66643H10.0026V9.99976H6.0026V8.66643Z" fill="black"/>
</svg>
