<svg width="14" height="12" viewBox="0 0 14 12" fill="none" xmlns="http://www.w3.org/2000/svg">
<path d="M0 4.33333V0.666667C0 0.298473 0.29848 0 0.666667 0H12.6667C13.0349 0 13.3333 0.298473 13.3333 0.666667V4.33333C12.4129 4.33333 11.6667 5.07954 11.6667 6.00001C11.6667 6.92047 12.4129 7.66667 13.3333 7.66667V11.3333C13.3333 11.7015 13.0349 12 12.6667 12H0.666667C0.29848 12 0 11.7015 0 11.3333V7.66667C0.920473 7.66667 1.66667 6.92047 1.66667 6.00001C1.66667 5.07954 0.920473 4.33333 0 4.33333ZM1.33333 3.31184C2.32115 3.80274 3 4.82207 3 6.00001C3 7.17787 2.32115 8.19727 1.33333 8.68814V10.6667H12V8.68814C11.0122 8.19727 10.3333 7.17787 10.3333 6.00001C10.3333 4.82207 11.0122 3.80274 12 3.31184V1.33333H1.33333V3.31184ZM4.66667 4H8.66668V5.33334H4.66667V4ZM4.66667 6.66667H8.66668V8.00001H4.66667V6.66667Z" fill="#5D51FF"/>
</svg>
